<svg xmlns="http://www.w3.org/2000/svg" width="21.979" height="25.793" viewBox="0 0 21.979 25.793"><defs><style>.a{fill:#031a2f;}</style></defs><path class="a" d="M12.775.484a2.336,2.336,0,0,1-1.786.787A2.477,2.477,0,0,1,9.173.515a2.443,2.443,0,0,1-.757-1.786h5.146A2.3,2.3,0,0,1,12.775.484Zm6.6-6.963,2.6,2.6V-2.6H0V-3.875l2.6-2.6v-7.084A8.145,8.145,0,0,1,4.42-18.8a8.186,8.186,0,0,1,4.6-2.937v-.848A1.834,1.834,0,0,1,9.6-23.977a1.951,1.951,0,0,1,1.393-.545,1.848,1.848,0,0,1,1.362.545,1.886,1.886,0,0,1,.545,1.393v.848A8.2,8.2,0,0,1,17.559-18.8a8.145,8.145,0,0,1,1.816,5.237Z" transform="translate(0 24.521)"/></svg>