<svg xmlns="http://www.w3.org/2000/svg" width="25.268" height="25.267" viewBox="0 0 25.268 25.267"><defs><style>.a{fill:none;}.b{fill:#eb5933;}</style></defs><path class="a" d="M0,0H25.267V25.267H0Z"/><path class="b" d="M16.592,3.027a4.987,4.987,0,0,0,0,2.027H4.6l7.814,6.751,5.225-4.581a5.18,5.18,0,0,0,1.618,1.3l-6.831,5.99L4.07,7.3V19.242H20.628V9.006a5.306,5.306,0,0,0,2.07,0V20.255a1.024,1.024,0,0,1-1.035,1.013H3.035A1.024,1.024,0,0,1,2,20.255V4.04A1.024,1.024,0,0,1,3.035,3.027Zm5.071,4.054a3.073,3.073,0,0,1-3.1-3.04,3.105,3.105,0,0,1,6.209,0A3.073,3.073,0,0,1,21.663,7.081Z" transform="translate(0.499 0.25)"/></svg>