<svg xmlns="http://www.w3.org/2000/svg" width="28.67" height="28.67" viewBox="0 0 28.67 28.67"><defs><style>.a{fill:none;}.b{fill:#eb5933;}</style></defs><path class="a" d="M0,0H28.67V28.67H0Z"/><path class="b" d="M18.557,3.3a5.658,5.658,0,0,0,0,2.3H4.949l8.866,7.66,5.929-5.2A5.877,5.877,0,0,0,21.578,9.54l-7.751,6.8L4.349,8.148V21.7H23.137V10.084a6.021,6.021,0,0,0,2.349,0V22.848A1.162,1.162,0,0,1,24.311,24H3.174A1.162,1.162,0,0,1,2,22.848V4.45A1.162,1.162,0,0,1,3.174,3.3Zm5.754,4.6a3.487,3.487,0,0,1-3.523-3.45,3.524,3.524,0,0,1,7.046,0A3.487,3.487,0,0,1,24.311,7.9Z" transform="translate(0.836 0.418)"/></svg>